<?xml version="1.0" standalone="no"?>
<!DOCTYPE svg PUBLIC "-//W3C//DTD SVG 20010904//EN"
 "http://www.w3.org/TR/2001/REC-SVG-20010904/DTD/svg10.dtd">
<svg version="1.0" xmlns="http://www.w3.org/2000/svg"
 width="247.000000pt" height="136.000000pt" viewBox="0 0 247.000000 136.000000"
 preserveAspectRatio="xMidYMid meet">
<metadata>
Created by potrace 1.16, written by Peter Selinger 2001-2019
</metadata>
<g transform="translate(0.000000,136.000000) scale(0.100000,-0.100000)"
fill="#000000" stroke="none">
<path d="M1216 791 l-148 -149 146 -148 147 -147 52 51 52 52 -27 27 -27 27
-24 -22 -23 -22 -92 93 -92 92 90 90 90 90 92 -92 92 -93 -32 -33 -32 -33 28
-27 28 -27 62 63 62 62 -148 148 -147 147 -149 -149z"/>
<path d="M1937 882 l-47 -48 28 -27 28 -27 22 22 22 23 92 -93 93 -92 -90 -90
-90 -90 -92 92 -93 92 31 32 c31 32 31 32 13 58 -11 14 -24 26 -29 26 -6 0
-37 -27 -70 -60 l-60 -60 148 -148 147 -147 149 149 149 149 -143 144 c-78 78
-147 143 -152 143 -5 0 -30 -22 -56 -48z"/>
<path d="M670 645 c0 -74 4 -135 8 -135 4 0 13 5 19 11 8 8 13 8 17 0 12 -19
54 -12 70 11 10 14 16 44 16 80 0 69 -17 92 -67 86 -33 -4 -33 -4 -33 39 0 32
-4 43 -15 43 -13 0 -15 -22 -15 -135z"/>
<path d="M322 688 c-14 -14 -16 -38 -3 -38 5 0 14 7 21 15 16 20 46 19 54 -1
11 -28 7 -33 -30 -40 -42 -8 -69 -43 -60 -79 7 -29 50 -44 78 -26 11 7 18 7
18 1 0 -5 7 -10 15 -10 22 0 21 137 -1 168 -17 25 -71 31 -92 10z"/>
</g>
</svg>
